<svg xmlns="http://www.w3.org/2000/svg" viewBox="0 0 24 24" aria-hidden="true" focusable="false">
  <path fill="currentColor" d="M20.32 4.37A19.8 19.8 0 0 0 15.36 2.8a13.8 13.8 0 0 0-.63 1.3 18.3 18.3 0 0 0-5.46 0 13.8 13.8 0 0 0-.64-1.3A19.7 19.7 0 0 0 3.68 4.38C.55 9.05-.3 13.61.12 18.1a19.9 19.9 0 0 0 6.08 3.08c.49-.67.93-1.38 1.3-2.12-.72-.27-1.41-.6-2.06-.98.17-.13.34-.26.5-.4a14.2 14.2 0 0 0 12.12 0c.16.14.33.27.5.4-.65.39-1.34.72-2.06.99.37.74.8 1.45 1.3 2.12a19.9 19.9 0 0 0 6.08-3.08c.5-5.2-.84-9.72-3.56-13.73ZM8.02 15.33c-1.18 0-2.15-1.08-2.15-2.42s.95-2.42 2.15-2.42 2.17 1.1 2.15 2.42c0 1.34-.95 2.42-2.15 2.42Zm7.96 0c-1.18 0-2.15-1.08-2.15-2.42s.95-2.42 2.15-2.42 2.17 1.1 2.15 2.42c0 1.34-.95 2.42-2.15 2.42Z"/>
</svg>
